<?xml version="1.0" encoding="utf-8"?>
<!-- Generator: Adobe Illustrator 16.0.0, SVG Export Plug-In . SVG Version: 6.00 Build 0)  -->
<!DOCTYPE svg PUBLIC "-//W3C//DTD SVG 1.1//EN" "http://www.w3.org/Graphics/SVG/1.1/DTD/svg11.dtd">
<svg version="1.1" id="Capa_1" xmlns="http://www.w3.org/2000/svg" xmlns:xlink="http://www.w3.org/1999/xlink" x="0px" y="0px"
	 width="55px" height="55px" viewBox="0 0 55 55" enable-background="new 0 0 55 55" xml:space="preserve">
<g>
	<path fill="#1D1D1B" d="M21.912,54.644l-0.514-0.135l-0.631-2.688l-0.62,2.359l-0.37-0.098l0.741-2.82l0.514,0.135l0.631,2.689
		l0.62-2.36l0.371,0.097L21.912,54.644z"/>
</g>
<g>
	<path fill="#1D1D1B" d="M17.236,52.438c-0.287-0.122-0.474-0.312-0.559-0.567c-0.084-0.258-0.057-0.551,0.084-0.883
		c0.14-0.329,0.332-0.553,0.576-0.67c0.244-0.118,0.509-0.116,0.797,0.006c0.289,0.123,0.476,0.313,0.56,0.57
		c0.083,0.257,0.056,0.55-0.084,0.879c-0.141,0.332-0.333,0.556-0.576,0.674C17.791,52.564,17.525,52.562,17.236,52.438z
		 M17.355,52.158c0.178,0.076,0.347,0.066,0.509-0.028c0.162-0.095,0.294-0.263,0.397-0.504c0.102-0.241,0.131-0.452,0.088-0.635
		c-0.044-0.182-0.155-0.311-0.334-0.387c-0.176-0.075-0.345-0.063-0.508,0.03c-0.162,0.096-0.294,0.264-0.396,0.503
		c-0.102,0.238-0.13,0.45-0.087,0.634C17.07,51.954,17.18,52.084,17.355,52.158z"/>
</g>
<g>
	<path fill="#1D1D1B" d="M13.963,50.334c0.024,0.041,0.054,0.076,0.09,0.109s0.079,0.064,0.129,0.092
		c0.177,0.1,0.345,0.118,0.505,0.057s0.3-0.201,0.421-0.416l0.564-1.006l0.315,0.178l-1.072,1.908l-0.315-0.178l0.167-0.297
		c-0.131,0.079-0.265,0.117-0.402,0.113c-0.137-0.003-0.281-0.047-0.433-0.131c-0.021-0.013-0.044-0.027-0.068-0.045
		c-0.025-0.018-0.051-0.039-0.08-0.062L13.963,50.334z"/>
</g>
<g>
	<path fill="#1D1D1B" d="M11.619,48.656c-0.169,0.074-0.328,0.104-0.473,0.089C11,48.73,10.86,48.672,10.725,48.568
		c-0.181-0.139-0.273-0.308-0.274-0.51c-0.002-0.201,0.086-0.42,0.265-0.654l0.801-1.05l0.288,0.22l-0.794,1.041
		c-0.127,0.166-0.192,0.313-0.195,0.438s0.057,0.235,0.178,0.327c0.148,0.113,0.303,0.153,0.464,0.12
		c0.161-0.032,0.306-0.134,0.436-0.304l0.75-0.983l0.287,0.22l-0.794,1.04c-0.128,0.168-0.192,0.314-0.195,0.439
		s0.058,0.235,0.181,0.329c0.146,0.111,0.3,0.15,0.462,0.117c0.161-0.033,0.306-0.135,0.435-0.303l0.75-0.984l0.288,0.22
		l-1.327,1.739l-0.288-0.219l0.207-0.271c-0.146,0.057-0.285,0.075-0.415,0.058c-0.13-0.02-0.257-0.076-0.383-0.172
		c-0.126-0.097-0.209-0.211-0.249-0.342C11.563,48.954,11.569,48.811,11.619,48.656z"/>
</g>
<g>
	<path fill="#1D1D1B" d="M8.41,45.013l0.9-0.864l0.249,0.259l-0.24,0.229c0.153-0.033,0.294-0.027,0.424,0.018
		c0.13,0.045,0.257,0.131,0.38,0.259c0.155,0.161,0.233,0.333,0.234,0.517c0.001,0.182-0.075,0.346-0.227,0.492
		c-0.177,0.17-0.368,0.24-0.573,0.208s-0.419-0.167-0.646-0.402l-0.349-0.363l-0.025,0.024c-0.119,0.114-0.173,0.242-0.164,0.383
		c0.01,0.141,0.083,0.283,0.22,0.426c0.087,0.09,0.182,0.166,0.286,0.231c0.104,0.064,0.215,0.115,0.334,0.153l-0.239,0.23
		c-0.128-0.061-0.244-0.126-0.348-0.197c-0.104-0.072-0.196-0.15-0.277-0.234c-0.22-0.229-0.324-0.455-0.314-0.682
		S8.169,45.244,8.41,45.013z M9.014,45.427c0.202,0.21,0.365,0.331,0.491,0.366c0.125,0.035,0.246-0.003,0.361-0.114
		c0.092-0.088,0.136-0.188,0.131-0.302c-0.004-0.111-0.056-0.221-0.156-0.324c-0.139-0.145-0.3-0.21-0.485-0.199
		c-0.186,0.012-0.363,0.098-0.532,0.26l-0.058,0.056L9.014,45.427z"/>
</g>
<g>
	<path fill="#1D1D1B" d="M5.006,43.5L4.7,42.999l1.305-1.671l-2.083,0.396l-0.306-0.501l2.488-1.521l0.201,0.328l-2.185,1.335
		l2.099-0.401l0.207,0.338L5.11,42.988l2.185-1.336l0.2,0.327L5.006,43.5z"/>
</g>
<g>
	<path fill="#1D1D1B" d="M3.411,36.71l0.163-0.067l0.636,1.525c0.222-0.109,0.367-0.252,0.436-0.425
		c0.068-0.173,0.056-0.369-0.036-0.589c-0.053-0.128-0.12-0.245-0.201-0.352s-0.178-0.205-0.289-0.297l0.313-0.131
		c0.1,0.098,0.189,0.204,0.268,0.317c0.079,0.114,0.145,0.235,0.198,0.364c0.134,0.322,0.147,0.615,0.038,0.883
		c-0.109,0.266-0.324,0.466-0.643,0.6c-0.331,0.138-0.63,0.157-0.898,0.061c-0.269-0.098-0.466-0.298-0.593-0.602
		c-0.113-0.271-0.115-0.522-0.006-0.754C2.906,37.014,3.11,36.835,3.411,36.71z M3.452,37.082c-0.18,0.078-0.304,0.189-0.371,0.334
		c-0.066,0.145-0.066,0.299,0.002,0.461c0.077,0.186,0.191,0.313,0.343,0.38c0.151,0.067,0.324,0.069,0.521,0.008L3.452,37.082z"/>
</g>
<g>
	<path fill="#1D1D1B" d="M1.578,34.104l1.238,0.478l0.86-1.104l0.114,0.409L3.131,34.73l0.999,0.383l0.114,0.409L2.913,35.01
		l-0.797,1.029l-0.113-0.408l0.596-0.769l-0.907-0.351L1.578,34.104z"/>
</g>
<g>
	<path fill="#1D1D1B" d="M0.416,32.773L0.353,32.42l0.448-0.08l0.063,0.354L0.416,32.773z M1.254,32.624l-0.063-0.354l2.154-0.383
		l0.063,0.354L1.254,32.624z"/>
</g>
<g>
	<path fill="#1D1D1B" d="M0.947,29.355l0.334-0.03c-0.046,0.106-0.079,0.212-0.098,0.315c-0.019,0.104-0.024,0.209-0.015,0.313
		c0.021,0.231,0.111,0.405,0.269,0.521c0.159,0.115,0.372,0.161,0.637,0.138c0.266-0.024,0.467-0.107,0.603-0.249
		c0.136-0.142,0.193-0.328,0.172-0.56c-0.009-0.104-0.032-0.206-0.069-0.306c-0.037-0.099-0.088-0.197-0.153-0.293l0.331-0.029
		c0.056,0.096,0.1,0.195,0.133,0.301c0.033,0.104,0.055,0.217,0.065,0.338c0.029,0.328-0.05,0.598-0.239,0.811
		c-0.189,0.211-0.459,0.333-0.809,0.364c-0.355,0.031-0.644-0.041-0.865-0.218c-0.221-0.178-0.347-0.436-0.377-0.775
		c-0.01-0.11-0.008-0.22,0.005-0.326C0.885,29.563,0.91,29.458,0.947,29.355z"/>
</g>
<g>
	<path fill="#1D1D1B" d="M1.806,26.332l1.248,0.031l-0.009,0.359l-0.332-0.008c0.131,0.085,0.227,0.19,0.286,0.314
		c0.061,0.124,0.088,0.274,0.084,0.452c-0.006,0.224-0.073,0.4-0.202,0.53c-0.129,0.129-0.299,0.191-0.51,0.186
		c-0.246-0.006-0.43-0.094-0.551-0.261c-0.12-0.168-0.177-0.416-0.169-0.742l0.013-0.504l-0.035-0.001
		c-0.165-0.004-0.295,0.047-0.389,0.154c-0.093,0.106-0.142,0.258-0.146,0.455c-0.003,0.125,0.009,0.247,0.035,0.366
		c0.027,0.119,0.069,0.234,0.127,0.346l-0.332-0.009c-0.048-0.133-0.083-0.262-0.105-0.386c-0.021-0.124-0.031-0.245-0.028-0.362
		c0.008-0.316,0.096-0.551,0.264-0.703C1.222,26.396,1.473,26.324,1.806,26.332z M1.937,27.053c-0.007,0.29,0.021,0.492,0.085,0.606
		c0.063,0.114,0.175,0.172,0.335,0.176c0.128,0.003,0.229-0.036,0.307-0.118c0.077-0.083,0.118-0.196,0.121-0.34
		c0.005-0.199-0.062-0.36-0.2-0.485c-0.138-0.124-0.324-0.188-0.559-0.194l-0.08-0.002L1.937,27.053z"/>
</g>
<g>
	<path fill="#1D1D1B" d="M2.108,23.066l1.308,0.195l-0.054,0.355l-1.295-0.194c-0.205-0.03-0.363-0.013-0.477,0.051
		c-0.114,0.065-0.184,0.177-0.207,0.336c-0.029,0.192,0.01,0.353,0.115,0.482c0.106,0.129,0.265,0.209,0.476,0.241l1.224,0.184
		l-0.054,0.357L0.98,24.75l0.054-0.357l0.336,0.05c-0.117-0.104-0.199-0.219-0.247-0.344c-0.047-0.125-0.06-0.263-0.036-0.414
		c0.037-0.248,0.142-0.425,0.315-0.53C1.575,23.051,1.811,23.021,2.108,23.066z"/>
</g>
<g>
	<path fill="#1D1D1B" d="M2.912,20.038l1.201,0.338l-0.097,0.346l-0.32-0.09c0.106,0.115,0.172,0.24,0.2,0.375
		c0.028,0.135,0.018,0.287-0.03,0.458c-0.061,0.216-0.169,0.37-0.325,0.464c-0.158,0.093-0.337,0.111-0.54,0.054
		c-0.237-0.066-0.394-0.196-0.47-0.388c-0.075-0.193-0.069-0.446,0.02-0.761l0.136-0.485l-0.034-0.009
		c-0.159-0.045-0.297-0.027-0.413,0.054c-0.116,0.08-0.201,0.215-0.255,0.404c-0.033,0.12-0.053,0.241-0.055,0.364
		c-0.004,0.122,0.008,0.244,0.037,0.366l-0.319-0.09c-0.015-0.141-0.017-0.273-0.007-0.399c0.009-0.126,0.029-0.245,0.061-0.358
		c0.086-0.305,0.229-0.51,0.429-0.616C2.33,19.956,2.59,19.948,2.912,20.038z M2.86,20.769c-0.078,0.28-0.101,0.482-0.066,0.608
		c0.033,0.126,0.127,0.21,0.281,0.253c0.123,0.035,0.231,0.021,0.327-0.039c0.095-0.061,0.161-0.161,0.2-0.299
		c0.054-0.192,0.029-0.365-0.074-0.52c-0.104-0.154-0.269-0.263-0.494-0.327l-0.077-0.021L2.86,20.769z"/>
</g>
<g>
	<path fill="#1D1D1B" d="M4.934,15.533l0.158,0.078l-0.734,1.481c0.229,0.096,0.431,0.112,0.605,0.051
		c0.177-0.063,0.316-0.2,0.423-0.414c0.061-0.123,0.105-0.251,0.133-0.382c0.026-0.131,0.038-0.269,0.034-0.414l0.305,0.151
		c-0.009,0.14-0.029,0.277-0.064,0.411C5.759,16.63,5.71,16.76,5.648,16.884c-0.155,0.313-0.368,0.516-0.641,0.608
		c-0.272,0.092-0.563,0.062-0.875-0.092c-0.32-0.159-0.532-0.372-0.635-0.638c-0.103-0.267-0.081-0.547,0.065-0.841
		c0.13-0.264,0.318-0.43,0.564-0.5C4.373,15.352,4.642,15.389,4.934,15.533z M4.68,15.809c-0.178-0.085-0.343-0.105-0.495-0.062
		c-0.152,0.045-0.269,0.146-0.347,0.305c-0.089,0.18-0.11,0.349-0.062,0.507c0.048,0.157,0.16,0.291,0.336,0.398L4.68,15.809z"/>
</g>
<g>
	<path fill="#1D1D1B" d="M6.395,12.844l1.104,0.726l-0.198,0.3l-1.093-0.72c-0.173-0.114-0.324-0.166-0.455-0.155
		c-0.129,0.011-0.24,0.083-0.328,0.218c-0.107,0.162-0.141,0.324-0.098,0.486c0.042,0.161,0.151,0.3,0.33,0.418l1.032,0.68
		L6.49,15.1l-1.827-1.203l0.198-0.302l0.284,0.187c-0.063-0.145-0.089-0.282-0.079-0.416c0.01-0.133,0.057-0.263,0.141-0.391
		c0.139-0.21,0.308-0.326,0.508-0.348C5.916,12.605,6.143,12.678,6.395,12.844z"/>
</g>
<g>
	<path fill="#1D1D1B" d="M7.135,9.404l0.268-0.291l2.15,1.971l-0.268,0.291L7.135,9.404z"/>
</g>
<g>
	<path fill="#1D1D1B" d="M11.538,8.787c0.249,0.277,0.373,0.538,0.372,0.784c-0.002,0.246-0.13,0.483-0.383,0.71
		c-0.095,0.084-0.189,0.157-0.286,0.218c-0.095,0.062-0.196,0.112-0.3,0.154l-0.234-0.26c0.117-0.027,0.223-0.066,0.318-0.115
		c0.094-0.048,0.182-0.108,0.261-0.179c0.175-0.158,0.265-0.322,0.271-0.492c0.005-0.17-0.076-0.347-0.242-0.532l-0.119-0.132
		c0.031,0.146,0.025,0.281-0.019,0.406s-0.126,0.242-0.246,0.35c-0.199,0.179-0.429,0.248-0.687,0.206
		C9.985,9.862,9.742,9.715,9.518,9.465C9.291,9.212,9.17,8.956,9.156,8.694C9.141,8.432,9.233,8.212,9.433,8.033
		c0.12-0.108,0.245-0.177,0.374-0.207c0.129-0.03,0.264-0.022,0.405,0.024L9.99,7.603l0.268-0.24L11.538,8.787z M10.704,8.397
		c-0.175-0.194-0.349-0.308-0.524-0.343s-0.336,0.013-0.48,0.143C9.557,8.326,9.492,8.48,9.508,8.658s0.111,0.364,0.285,0.559
		c0.174,0.192,0.348,0.306,0.523,0.341c0.176,0.035,0.336-0.013,0.479-0.142c0.145-0.129,0.209-0.284,0.193-0.462
		C10.972,8.775,10.877,8.59,10.704,8.397z"/>
</g>
<g>
	<path fill="#1D1D1B" d="M12.272,7.527l-0.756-1.089l0.296-0.205l0.747,1.078c0.118,0.17,0.24,0.275,0.365,0.314
		c0.125,0.039,0.254,0.013,0.387-0.079c0.16-0.111,0.252-0.249,0.273-0.415c0.021-0.166-0.028-0.337-0.15-0.512l-0.707-1.02
		l0.296-0.205l1.247,1.798l-0.295,0.205l-0.191-0.276c0.004,0.159-0.023,0.297-0.082,0.416s-0.149,0.222-0.275,0.309
		c-0.206,0.144-0.407,0.188-0.604,0.133C12.628,7.925,12.443,7.774,12.272,7.527z"/>
</g>
<g>
	<path fill="#1D1D1B" d="M16.229,4.546l0.578,1.105l-0.318,0.167l-0.154-0.294c-0.011,0.155-0.057,0.29-0.135,0.402
		c-0.08,0.113-0.197,0.21-0.354,0.292C15.646,6.323,15.46,6.351,15.284,6.3s-0.312-0.168-0.41-0.355
		c-0.114-0.218-0.127-0.42-0.039-0.607c0.089-0.188,0.276-0.356,0.567-0.508l0.445-0.234l-0.016-0.031
		c-0.077-0.146-0.185-0.235-0.322-0.265C15.371,4.27,15.215,4.3,15.04,4.392c-0.11,0.058-0.212,0.127-0.302,0.209
		c-0.092,0.081-0.172,0.173-0.241,0.278l-0.154-0.294c0.094-0.106,0.189-0.199,0.286-0.279c0.099-0.08,0.199-0.147,0.303-0.201
		c0.281-0.147,0.529-0.184,0.743-0.111C15.89,4.066,16.073,4.25,16.229,4.546z M15.662,5.01c-0.258,0.135-0.421,0.257-0.489,0.368
		c-0.068,0.11-0.065,0.237,0.009,0.379c0.06,0.113,0.144,0.183,0.253,0.211c0.108,0.027,0.228,0.007,0.355-0.06
		c0.177-0.093,0.286-0.229,0.327-0.41c0.04-0.181,0.007-0.375-0.102-0.583l-0.037-0.071L15.662,5.01z"/>
</g>
<g>
	<path fill="#1D1D1B" d="M16.889,2.314l0.333-0.136l1.149,2.815l-0.333,0.136L16.889,2.314z"/>
</g>
<g>
	<path fill="#1D1D1B" d="M20.331,2.383L19.99,1.249l0.344-0.104l0.876,2.911L20.865,4.16l-0.094-0.313
		c-0.035,0.146-0.099,0.266-0.191,0.36c-0.092,0.094-0.215,0.163-0.37,0.21c-0.253,0.076-0.489,0.037-0.709-0.117
		s-0.379-0.396-0.479-0.725c-0.099-0.329-0.1-0.619-0.001-0.869c0.098-0.249,0.273-0.412,0.527-0.488
		c0.154-0.047,0.296-0.057,0.425-0.029C20.102,2.214,20.221,2.28,20.331,2.383z M19.378,3.467c0.076,0.254,0.188,0.436,0.335,0.549
		c0.148,0.113,0.313,0.142,0.495,0.087c0.182-0.055,0.304-0.17,0.365-0.346c0.062-0.175,0.054-0.39-0.022-0.643
		c-0.076-0.254-0.188-0.436-0.336-0.549c-0.148-0.112-0.313-0.141-0.495-0.086c-0.183,0.055-0.304,0.169-0.365,0.345
		C19.295,3,19.302,3.214,19.378,3.467z"/>
</g>
<g>
	<path fill="#1D1D1B" d="M23.963,2.271l0.207,1.231l-0.354,0.06l-0.055-0.328c-0.06,0.145-0.145,0.258-0.254,0.341
		c-0.11,0.083-0.253,0.139-0.428,0.168c-0.221,0.038-0.406,0.005-0.558-0.097c-0.151-0.102-0.245-0.257-0.28-0.465
		c-0.041-0.242,0.01-0.439,0.151-0.59c0.143-0.151,0.374-0.253,0.696-0.308L23.586,2.2L23.58,2.165
		c-0.027-0.164-0.103-0.281-0.225-0.352c-0.122-0.071-0.28-0.09-0.475-0.058c-0.123,0.021-0.24,0.055-0.353,0.105
		c-0.111,0.049-0.217,0.112-0.314,0.19l-0.056-0.328c0.122-0.072,0.241-0.13,0.358-0.176c0.118-0.046,0.234-0.078,0.351-0.098
		c0.313-0.053,0.559-0.011,0.74,0.125C23.789,1.71,23.907,1.941,23.963,2.271z M23.28,2.536c-0.287,0.048-0.479,0.115-0.579,0.199
		c-0.099,0.084-0.136,0.205-0.109,0.363c0.021,0.126,0.08,0.219,0.175,0.279c0.096,0.061,0.215,0.078,0.357,0.054
		c0.196-0.033,0.343-0.129,0.438-0.289c0.095-0.159,0.123-0.354,0.085-0.585l-0.014-0.079L23.28,2.536z"/>
</g>
<g>
	<path fill="#1D1D1B" d="M26.74,1.37l-0.052-1.184l0.359-0.016l0.133,3.037l-0.359,0.016l-0.015-0.328
		c-0.069,0.133-0.16,0.234-0.272,0.302c-0.112,0.069-0.25,0.106-0.411,0.113c-0.264,0.012-0.483-0.084-0.658-0.288
		c-0.176-0.204-0.271-0.477-0.286-0.82c-0.015-0.344,0.056-0.625,0.213-0.842c0.157-0.218,0.367-0.333,0.631-0.345
		c0.161-0.007,0.302,0.019,0.42,0.077C26.56,1.149,26.659,1.242,26.74,1.37z M25.55,2.186c0.012,0.265,0.075,0.468,0.19,0.614
		c0.115,0.146,0.268,0.214,0.458,0.206c0.189-0.008,0.336-0.09,0.439-0.245c0.102-0.155,0.147-0.363,0.136-0.628
		s-0.075-0.47-0.19-0.615c-0.116-0.145-0.27-0.213-0.459-0.205c-0.19,0.009-0.336,0.09-0.438,0.245
		C25.584,1.711,25.538,1.921,25.55,2.186z"/>
</g>
<g>
	<path fill="#1D1D1B" d="M30.426,0.465l0.391,0.055L30.465,3.08l1.408,0.193l-0.045,0.328l-1.799-0.246L30.426,0.465z"/>
</g>
<g>
	<path fill="#1D1D1B" d="M34.78,3.07l-0.315,1.208l-0.348-0.091l0.084-0.321c-0.112,0.108-0.236,0.177-0.371,0.208
		c-0.135,0.03-0.287,0.022-0.459-0.021c-0.217-0.057-0.373-0.162-0.469-0.317S32.783,3.4,32.837,3.196
		c0.062-0.237,0.188-0.397,0.38-0.478c0.191-0.079,0.445-0.077,0.762,0.005l0.488,0.127l0.008-0.034
		c0.041-0.159,0.021-0.297-0.061-0.412c-0.084-0.115-0.219-0.197-0.41-0.247c-0.121-0.032-0.242-0.048-0.365-0.049
		c-0.121-0.001-0.244,0.015-0.364,0.044l0.083-0.321c0.141-0.016,0.274-0.021,0.4-0.014c0.125,0.007,0.245,0.024,0.359,0.054
		c0.307,0.08,0.514,0.22,0.625,0.418C34.852,2.486,34.863,2.748,34.78,3.07z M34.049,3.033c-0.281-0.074-0.484-0.092-0.609-0.056
		s-0.209,0.132-0.248,0.287c-0.033,0.123-0.018,0.231,0.045,0.325s0.164,0.158,0.305,0.195c0.193,0.05,0.363,0.022,0.518-0.084
		c0.151-0.107,0.258-0.273,0.316-0.5l0.02-0.078L34.049,3.033z"/>
</g>
<g>
	<path fill="#1D1D1B" d="M36.656,3.016c0.118-0.094,0.243-0.147,0.373-0.163c0.131-0.016,0.271,0.007,0.419,0.065
		c0.246,0.1,0.408,0.277,0.483,0.535c0.076,0.258,0.051,0.546-0.077,0.865c-0.128,0.318-0.309,0.545-0.542,0.68
		c-0.231,0.134-0.472,0.151-0.718,0.053c-0.148-0.06-0.265-0.14-0.349-0.241c-0.083-0.103-0.136-0.228-0.158-0.376l-0.121,0.305
		l-0.336-0.135l1.13-2.822l0.336,0.135L36.656,3.016z M37.507,4.18c0.099-0.246,0.126-0.458,0.08-0.639
		c-0.045-0.18-0.155-0.305-0.332-0.376c-0.176-0.07-0.343-0.056-0.5,0.043c-0.156,0.1-0.284,0.271-0.383,0.517
		s-0.124,0.458-0.079,0.639c0.045,0.18,0.156,0.305,0.332,0.375c0.176,0.071,0.343,0.057,0.5-0.042
		C37.282,4.597,37.408,4.425,37.507,4.18z"/>
</g>
<g>
	<path fill="#1D1D1B" d="M40.32,4.28c0.273,0.151,0.438,0.36,0.495,0.624c0.058,0.265-0.002,0.554-0.177,0.867
		s-0.389,0.515-0.645,0.605c-0.255,0.092-0.52,0.061-0.792-0.091c-0.274-0.153-0.439-0.361-0.495-0.626
		c-0.056-0.266,0.003-0.553,0.178-0.866s0.39-0.517,0.644-0.606C39.782,4.096,40.047,4.127,40.32,4.28z M40.172,4.546
		c-0.168-0.094-0.338-0.103-0.509-0.025c-0.171,0.076-0.32,0.229-0.447,0.458c-0.128,0.229-0.18,0.436-0.155,0.621
		c0.023,0.186,0.121,0.326,0.29,0.42c0.167,0.094,0.337,0.103,0.508,0.024c0.172-0.078,0.32-0.229,0.447-0.458
		c0.126-0.227,0.178-0.433,0.153-0.619C40.436,4.779,40.34,4.64,40.172,4.546z"/>
</g>
<g>
	<path fill="#1D1D1B" d="M43.311,6.666c-0.02-0.042-0.045-0.082-0.078-0.118c-0.031-0.036-0.071-0.071-0.118-0.104
		c-0.165-0.119-0.33-0.154-0.496-0.11c-0.165,0.044-0.319,0.167-0.463,0.369l-0.669,0.938l-0.294-0.209l1.269-1.782l0.295,0.21
		l-0.197,0.276c0.139-0.064,0.275-0.087,0.412-0.069c0.136,0.018,0.275,0.076,0.416,0.177c0.02,0.015,0.041,0.032,0.063,0.052
		s0.047,0.043,0.072,0.07L43.311,6.666z"/>
</g>
<g>
	<path fill="#1D1D1B" d="M45.126,8.98l-0.828,0.934l-0.269-0.238l0.22-0.248c-0.149,0.045-0.29,0.051-0.425,0.016
		c-0.133-0.032-0.266-0.108-0.398-0.227c-0.168-0.148-0.26-0.313-0.275-0.495c-0.015-0.182,0.047-0.352,0.188-0.509
		c0.162-0.185,0.348-0.27,0.554-0.253c0.206,0.016,0.433,0.132,0.677,0.349l0.377,0.334l0.023-0.025
		c0.109-0.125,0.154-0.256,0.132-0.396c-0.021-0.14-0.104-0.274-0.253-0.405c-0.093-0.084-0.193-0.154-0.303-0.209
		c-0.107-0.057-0.223-0.1-0.345-0.127l0.22-0.248c0.133,0.051,0.253,0.105,0.362,0.169c0.11,0.063,0.208,0.134,0.296,0.212
		c0.236,0.209,0.359,0.428,0.367,0.654C45.453,8.493,45.348,8.73,45.126,8.98z M44.49,8.616c-0.217-0.192-0.389-0.301-0.518-0.326
		c-0.128-0.024-0.244,0.023-0.351,0.144c-0.085,0.096-0.12,0.198-0.107,0.311c0.013,0.111,0.074,0.216,0.183,0.312
		c0.148,0.132,0.314,0.186,0.498,0.159c0.186-0.025,0.354-0.126,0.51-0.302l0.053-0.06L44.49,8.616z"/>
</g>
<g>
	<path fill="#1D1D1B" d="M47.422,8.752l0.245,0.263l-2.219,2.076l-0.245-0.263L47.422,8.752z"/>
</g>
<g>
	<path fill="#1D1D1B" d="M47.614,14.118c-0.272,0.063-0.468,0.076-0.588,0.041c-0.119-0.035-0.226-0.121-0.315-0.254l-0.161-0.238
		l0.249-0.168l0.118,0.174c0.056,0.082,0.118,0.133,0.188,0.152c0.069,0.019,0.194,0.008,0.376-0.036l0.172-0.038l1.287-1.939
		l0.214,0.315l-1.034,1.524l1.801-0.393l0.213,0.315L47.614,14.118z"/>
</g>
<g>
	<path fill="#1D1D1B" d="M52.32,16.04l0.201,0.492l-1.768,2.122l2.258-0.926l0.146,0.354l-2.699,1.106l-0.202-0.492l1.768-2.122
		l-2.258,0.926l-0.146-0.354L52.32,16.04z"/>
</g>
<g>
	<path fill="#1D1D1B" d="M53.404,21.149c0.075,0.303,0.036,0.565-0.118,0.788c-0.153,0.223-0.404,0.377-0.753,0.464
		c-0.348,0.086-0.642,0.069-0.883-0.056c-0.241-0.124-0.399-0.337-0.475-0.64c-0.076-0.305-0.037-0.567,0.118-0.79
		c0.154-0.222,0.406-0.376,0.753-0.463c0.349-0.087,0.644-0.069,0.883,0.055C53.17,20.63,53.328,20.844,53.404,21.149z
		 M53.108,21.223c-0.047-0.188-0.156-0.317-0.329-0.389c-0.173-0.073-0.387-0.077-0.641-0.013s-0.44,0.167-0.56,0.312
		c-0.119,0.144-0.155,0.31-0.107,0.499c0.046,0.186,0.156,0.314,0.329,0.387c0.174,0.072,0.388,0.077,0.64,0.014
		c0.252-0.063,0.438-0.167,0.558-0.312C53.118,21.573,53.155,21.408,53.108,21.223z"/>
</g>
<g>
	<path fill="#1D1D1B" d="M54.81,25.295l0.032,0.81c0.023,0.565-0.078,0.983-0.302,1.257c-0.224,0.274-0.587,0.421-1.086,0.441
		c-0.503,0.02-0.877-0.099-1.122-0.354c-0.246-0.256-0.381-0.665-0.403-1.228l-0.032-0.81L54.81,25.295z M54.502,25.701
		l-2.266,0.091l0.02,0.477c0.016,0.402,0.118,0.692,0.308,0.872c0.19,0.179,0.481,0.262,0.874,0.246
		c0.391-0.016,0.673-0.121,0.846-0.315c0.175-0.193,0.254-0.491,0.238-0.894L54.502,25.701z"/>
</g>
<g>
	<path fill="#1D1D1B" d="M54.134,29.349l-0.024,0.358l-2.184-0.146l0.024-0.358L54.134,29.349z M54.983,29.406l-0.023,0.357
		l-0.455-0.03l0.024-0.358L54.983,29.406z"/>
</g>
<g>
	<path fill="#1D1D1B" d="M53.728,32.437l-0.336-0.052c0.066-0.092,0.121-0.19,0.164-0.295c0.042-0.104,0.072-0.214,0.09-0.33
		c0.026-0.176,0.02-0.313-0.021-0.408c-0.041-0.097-0.115-0.153-0.224-0.17c-0.082-0.013-0.151,0.01-0.208,0.064
		c-0.057,0.057-0.121,0.177-0.192,0.36l-0.046,0.118c-0.093,0.244-0.196,0.411-0.312,0.502c-0.114,0.092-0.259,0.124-0.437,0.097
		c-0.2-0.03-0.347-0.134-0.44-0.312c-0.093-0.176-0.117-0.404-0.075-0.682c0.018-0.116,0.047-0.234,0.089-0.357
		c0.042-0.122,0.096-0.248,0.162-0.381l0.367,0.056c-0.089,0.121-0.159,0.243-0.214,0.365c-0.053,0.122-0.09,0.246-0.108,0.37
		c-0.025,0.168-0.017,0.301,0.027,0.399s0.117,0.156,0.222,0.172c0.096,0.015,0.176-0.006,0.236-0.063
		c0.062-0.057,0.134-0.191,0.215-0.404l0.047-0.119c0.08-0.214,0.176-0.362,0.287-0.445c0.11-0.083,0.25-0.111,0.417-0.086
		c0.203,0.031,0.349,0.127,0.438,0.287c0.088,0.162,0.113,0.375,0.072,0.641c-0.02,0.131-0.049,0.253-0.086,0.365
		C53.827,32.242,53.781,32.346,53.728,32.437z"/>
</g>
<g>
	<path fill="#1D1D1B" d="M53.039,35.397l-0.324-0.087c0.08-0.083,0.146-0.171,0.2-0.262c0.053-0.092,0.093-0.188,0.12-0.289
		c0.06-0.225,0.035-0.419-0.074-0.582c-0.11-0.162-0.295-0.277-0.553-0.346c-0.258-0.069-0.475-0.061-0.65,0.026
		c-0.176,0.086-0.294,0.243-0.354,0.468c-0.027,0.101-0.04,0.205-0.039,0.311c0,0.105,0.015,0.214,0.043,0.326l-0.321-0.085
		c-0.02-0.108-0.026-0.218-0.021-0.327c0.005-0.11,0.022-0.225,0.054-0.341c0.085-0.318,0.252-0.545,0.502-0.679
		c0.25-0.135,0.545-0.156,0.885-0.066c0.345,0.092,0.592,0.259,0.738,0.501c0.147,0.242,0.178,0.528,0.09,0.857
		c-0.029,0.107-0.067,0.208-0.117,0.305C53.168,35.224,53.108,35.314,53.039,35.397z"/>
</g>
<g>
	<path fill="#1D1D1B" d="M51.918,37.738c0.036-0.029,0.068-0.064,0.096-0.105c0.026-0.041,0.051-0.088,0.07-0.141
		c0.072-0.191,0.065-0.359-0.02-0.508s-0.243-0.268-0.475-0.355l-1.078-0.407l0.128-0.338l2.046,0.774l-0.127,0.338l-0.318-0.12
		c0.098,0.118,0.154,0.245,0.173,0.381c0.017,0.136-0.005,0.285-0.066,0.446c-0.009,0.024-0.021,0.049-0.033,0.076
		c-0.015,0.026-0.03,0.057-0.049,0.088L51.918,37.738z"/>
</g>
<g>
	<path fill="#1D1D1B" d="M51.696,38.9l-0.153,0.324l-1.979-0.932l0.153-0.326L51.696,38.9z M52.467,39.263l-0.153,0.325
		l-0.411-0.193l0.153-0.326L52.467,39.263z"/>
</g>
<g>
	<path fill="#1D1D1B" d="M49.694,41.729c0.089,0.162,0.132,0.316,0.129,0.465c-0.002,0.146-0.048,0.291-0.139,0.435
		c-0.122,0.192-0.283,0.298-0.484,0.317c-0.2,0.018-0.427-0.051-0.675-0.208L47.41,42.03l0.193-0.306l1.105,0.701
		c0.177,0.112,0.328,0.164,0.455,0.156c0.125-0.009,0.229-0.077,0.31-0.206c0.101-0.157,0.126-0.315,0.08-0.473
		c-0.047-0.157-0.16-0.294-0.341-0.407l-1.044-0.662l0.193-0.306l1.105,0.7c0.179,0.113,0.329,0.165,0.454,0.156
		c0.125-0.008,0.229-0.078,0.313-0.209c0.098-0.154,0.123-0.311,0.076-0.469s-0.16-0.295-0.339-0.408l-1.044-0.662l0.193-0.305
		l1.848,1.172l-0.193,0.305l-0.287-0.182c0.068,0.141,0.1,0.277,0.092,0.408c-0.007,0.131-0.053,0.264-0.137,0.396
		c-0.086,0.135-0.191,0.227-0.32,0.277C49.996,41.76,49.852,41.767,49.694,41.729z"/>
</g>
<g>
	<path fill="#1D1D1B" d="M48.189,44.508l-0.229,0.277l-1.688-1.391l0.229-0.277L48.189,44.508z M48.847,45.049l-0.229,0.277
		l-0.351-0.289l0.229-0.277L48.847,45.049z"/>
</g>
<g>
	<path fill="#1D1D1B" d="M45.215,46.549l-0.936-0.93l0.254-0.256l0.928,0.923c0.146,0.146,0.285,0.228,0.414,0.242
		c0.131,0.015,0.252-0.035,0.366-0.149c0.138-0.138,0.201-0.289,0.192-0.455c-0.009-0.168-0.089-0.326-0.24-0.477l-0.877-0.871
		l0.255-0.257l1.551,1.542l-0.255,0.257l-0.24-0.239c0.032,0.153,0.03,0.295-0.006,0.423c-0.035,0.128-0.107,0.247-0.215,0.354
		c-0.177,0.178-0.366,0.259-0.567,0.24S45.43,46.763,45.215,46.549z"/>
</g>
<g>
	<path fill="#1D1D1B" d="M42.734,48.443l-0.77-0.982l0.283-0.223l0.205,0.261c-0.018-0.155,0.002-0.295,0.061-0.42
		c0.057-0.125,0.154-0.242,0.295-0.353c0.176-0.137,0.355-0.197,0.536-0.181c0.181,0.018,0.337,0.109,0.468,0.275
		c0.151,0.193,0.202,0.39,0.148,0.591c-0.053,0.2-0.207,0.401-0.465,0.603L43.1,48.325l0.022,0.027
		c0.102,0.13,0.224,0.198,0.365,0.202s0.288-0.055,0.444-0.176c0.098-0.077,0.184-0.164,0.26-0.262
		c0.074-0.096,0.137-0.201,0.186-0.316l0.205,0.262c-0.072,0.121-0.148,0.229-0.23,0.326c-0.082,0.096-0.17,0.18-0.262,0.252
		c-0.248,0.195-0.484,0.277-0.709,0.244C43.156,48.853,42.939,48.705,42.734,48.443z M43.208,47.883
		c0.229-0.179,0.366-0.328,0.413-0.451c0.048-0.121,0.021-0.244-0.077-0.371c-0.079-0.1-0.175-0.153-0.286-0.16
		c-0.113-0.008-0.227,0.033-0.34,0.123c-0.156,0.123-0.238,0.277-0.246,0.462c-0.008,0.187,0.061,0.37,0.205,0.556l0.05,0.063
		L43.208,47.883z"/>
</g>
<g>
	<path fill="#1D1D1B" d="M40.68,50.842l-0.176-0.287c0.117-0.006,0.225-0.021,0.327-0.052c0.102-0.029,0.197-0.071,0.286-0.126
		c0.198-0.121,0.314-0.279,0.348-0.473c0.032-0.193-0.021-0.404-0.16-0.632c-0.14-0.228-0.303-0.37-0.49-0.429
		c-0.188-0.06-0.381-0.027-0.578,0.094c-0.09,0.055-0.17,0.121-0.243,0.197c-0.073,0.078-0.138,0.166-0.194,0.268l-0.174-0.283
		c0.061-0.092,0.131-0.176,0.211-0.252c0.079-0.076,0.171-0.146,0.273-0.21c0.281-0.172,0.559-0.22,0.832-0.146
		c0.273,0.076,0.502,0.264,0.686,0.563c0.188,0.305,0.25,0.596,0.189,0.873c-0.061,0.276-0.236,0.504-0.527,0.682
		c-0.094,0.059-0.191,0.104-0.294,0.141C40.894,50.805,40.788,50.828,40.68,50.842z"/>
</g>
<g>
	<path fill="#1D1D1B" d="M39.596,51.541l-0.322,0.161l-0.978-1.958l0.321-0.161L39.596,51.541z M39.977,52.304l-0.322,0.161
		l-0.203-0.408l0.321-0.16L39.977,52.304z"/>
</g>
<g>
	<path fill="#1D1D1B" d="M37.231,52.619c-0.292,0.112-0.558,0.105-0.797-0.021s-0.423-0.356-0.552-0.692
		c-0.129-0.334-0.146-0.628-0.054-0.883c0.093-0.253,0.286-0.437,0.578-0.549s0.559-0.105,0.798,0.021
		c0.239,0.127,0.423,0.356,0.551,0.69c0.13,0.336,0.147,0.631,0.055,0.885C37.717,52.323,37.523,52.507,37.231,52.619z
		 M37.122,52.334c0.18-0.068,0.295-0.193,0.346-0.374s0.029-0.393-0.065-0.638c-0.094-0.244-0.22-0.417-0.378-0.518
		c-0.157-0.1-0.327-0.115-0.508-0.046c-0.179,0.068-0.294,0.194-0.344,0.375c-0.051,0.182-0.028,0.394,0.065,0.636
		c0.093,0.242,0.218,0.414,0.377,0.516S36.943,52.403,37.122,52.334z M37.322,53.611l-0.363,0.14l0.331-0.914l0.278-0.107
		L37.322,53.611z"/>
</g>
<g>
	<path fill="#1D1D1B" d="M32.808,52.994l-0.313-1.283l0.349-0.086l0.311,1.271c0.05,0.201,0.125,0.343,0.229,0.424
		c0.103,0.08,0.231,0.102,0.39,0.063c0.188-0.046,0.322-0.143,0.401-0.289c0.08-0.147,0.095-0.324,0.044-0.531l-0.294-1.202
		l0.351-0.086l0.52,2.127l-0.351,0.085l-0.081-0.33c-0.053,0.147-0.128,0.268-0.226,0.358c-0.099,0.091-0.221,0.154-0.368,0.191
		c-0.245,0.059-0.447,0.028-0.609-0.092C32.996,53.494,32.879,53.287,32.808,52.994z"/>
</g>
<path fill="#1D1D1B" d="M28.613,53.313c0-0.606-0.492-1.099-1.102-1.099c-0.61,0-1.102,0.492-1.102,1.099
	c0,0.608,0.492,1.101,1.102,1.101c0.302,0.031,0.598-0.074,0.813-0.285C28.539,53.914,28.645,53.613,28.613,53.313"/>
<path fill="#93C01F" d="M40.016,21.199c-0.797,0.5,0.203,2.602,1.004,3.903c0.625,0.781,1.039,1.711,1.199,2.699
	c0,1.004-0.5,1.602-1.199,2.703c-0.801,1.301-1.801,3.301-1.004,3.902c0.801,0.5,1.402-2.602,3.902-4.004
	c1.801-1,5.605,0.5,5.605-2.5c0-3-3.805-1.5-5.605-2.5C41.418,23.801,40.816,20.699,40.016,21.199 M41.52,27.703
	c0-0.883-0.719-1.601-1.602-1.601c-0.887,0-1.602,0.718-1.602,1.601c0,0.883,0.715,1.602,1.602,1.602
	c0.426,0.004,0.836-0.164,1.137-0.465S41.523,28.129,41.52,27.703"/>
<path fill="#E5332A" d="M26.91,13.598c0,1-2.301,1.097-3.801,1.097c-0.976-0.125-1.972-0.023-2.902,0.301
	c-0.801,0.5-1.098,1.203-1.699,2.402c-0.699,1.301-1.903,3.301-2.801,2.801c-0.902-0.398,1.5-2.5,1.5-5.402
	c0-2.102-3.301-4.602-0.699-6.102c2.5-1.504,3.199,2.602,5,3.602C23.91,13.695,26.91,12.598,26.91,13.598 M20.508,15.598
	c0.773-0.442,1.758-0.172,2.199,0.601c0.441,0.774,0.176,1.758-0.598,2.199c-0.773,0.442-1.757,0.172-2.203-0.601
	C19.492,17.023,19.754,16.055,20.508,15.598"/>
<path fill="#F29100" d="M26.91,41.91c0-1-2.301-1.102-3.801-1.102c-0.976,0.13-1.972,0.023-2.902-0.301
	c-0.801-0.5-1.098-1.199-1.699-2.402c-0.699-1.297-1.903-3.301-2.801-2.801c-0.902,0.402,1.5,2.504,1.5,5.402
	c0,2.102-3.301,4.606-0.699,6.106c2.5,1.5,3.199-2.603,5-3.603C23.91,41.809,26.91,42.91,26.91,41.91 M20.508,39.809
	c0.773,0.441,1.758,0.172,2.199-0.602s0.176-1.758-0.598-2.199c-0.773-0.441-1.757-0.172-2.203,0.598
	c-0.211,0.371-0.269,0.813-0.156,1.227S20.137,39.598,20.508,39.809"/>
<path fill="#7A6A58" d="M15.004,34.305c0.801-0.5-0.199-2.602-1-3.902c-0.625-0.781-1.039-1.711-1.199-2.699
	c0-1,0.5-1.601,1.199-2.703c0.801-1.301,1.801-3.301,1-3.902c-0.797-0.5-1.399,2.601-3.899,4.004c-1.8,1-5.605-0.5-5.605,2.5
	c0,3.003,3.805,1.5,5.605,2.503C13.605,31.703,14.207,34.805,15.004,34.305 M13.906,26.801c-0.402,0.609-0.402,1.395,0,2.004
	c0.11,0.801,0.793,1.398,1.602,1.398h0.097c-0.082-0.188-0.113-0.395-0.097-0.602v-0.199c0.754-0.156,1.297-0.824,1.297-1.602
	c0-0.774-0.543-1.442-1.297-1.598V26c-0.016-0.203,0.015-0.41,0.097-0.598h-0.097C14.684,25.363,13.977,25.98,13.906,26.801"/>
<path fill="#662482" d="M39.316,35.207c-0.898-0.402-2.102,1.5-2.801,2.801c-0.602,1.102-0.902,1.898-1.699,2.402
	c-0.922,0.371-1.926,0.477-2.902,0.297c-1.5,0-3.801,0.102-3.801,1.102s2.898-0.102,5.402,1.301c1.801,1,2.5,5.102,5,3.602
	c2.504-1.5-0.699-4.102-0.699-6.102C37.816,37.809,40.219,35.707,39.316,35.207 M33.414,40.008c0.348,0.031,0.691-0.039,1-0.199
	c0.309-0.191,0.555-0.469,0.699-0.801c0.617-0.516,0.785-1.395,0.402-2.102c0-0.055-0.047-0.098-0.102-0.098l-0.398,0.398
	c-0.102,0-0.102,0.102-0.199,0.102c-0.5-0.586-1.352-0.711-2.003-0.301c-0.688,0.359-0.989,1.181-0.7,1.898
	c-0.102,0-0.102,0.102-0.199,0.102c-0.156,0.094-0.324,0.16-0.5,0.199v0.102c0.16,0.367,0.469,0.652,0.848,0.785
	S33.059,40.195,33.414,40.008"/>
<path fill="#35A8E0" d="M28.113,13.598c0,1,2.301,1.097,3.801,1.097c0.977-0.125,1.969-0.023,2.902,0.301
	c0.797,0.5,1.098,1.203,1.699,2.402c0.699,1.301,1.902,3.301,2.801,2.801c0.902-0.398-1.5-2.5-1.5-5.402
	c0-2.102,3.301-4.602,0.699-6.102c-2.602-1.504-3.199,2.602-5,3.602C31.012,13.695,28.113,12.598,28.113,13.598 M35.113,16.496
	c-0.145-0.332-0.391-0.609-0.699-0.801c-0.289-0.207-0.652-0.277-1-0.199c-0.75-0.289-1.598,0.008-2,0.703v0.098
	c0.184,0.004,0.363,0.074,0.5,0.199c0.098,0,0.098,0.102,0.199,0.102c-0.238,0.718,0.051,1.507,0.7,1.902
	c0.647,0.418,1.507,0.289,2.003-0.301c0.098,0,0.098,0.098,0.199,0.098c0.18,0.082,0.32,0.223,0.398,0.402
	c0-0.054,0.047-0.101,0.102-0.101c0.234-0.328,0.324-0.739,0.246-1.137C35.688,17.066,35.453,16.719,35.113,16.496"/>
</svg>
